<?xml version="1.0" encoding="UTF-8"?><svg xmlns="http://www.w3.org/2000/svg" xmlns:xlink="http://www.w3.org/1999/xlink" fill-opacity="1" color-rendering="auto" color-interpolation="auto" text-rendering="auto" stroke="black" stroke-linecap="square" width="1110" stroke-miterlimit="10" shape-rendering="auto" stroke-opacity="1" fill="black" stroke-dasharray="none" font-weight="normal" stroke-width="1" height="667" font-family="'Dialog'" font-style="normal" stroke-linejoin="miter" font-size="12px" stroke-dashoffset="0" image-rendering="auto">
  <!--Generated by ySVG 2.6-->
  <defs id="genericDefs"/>
  <g>
    <g fill="white" text-rendering="geometricPrecision" shape-rendering="geometricPrecision" transform="translate(8,-372)" stroke="white">
      <rect x="-8" width="1110" height="667" y="372" clip-path="url(#clipPath2)" stroke="none"/>
    </g>
    <g text-rendering="geometricPrecision" shape-rendering="geometricPrecision" transform="matrix(1.4743,0,0,1.4523,620.7767,296.25)">
      <g clip-path="url(#clipPath3)">
        <svg xmlns:svg="http://www.w3.org/2000/svg" xmlns:sodipodi="http://sodipodi.sourceforge.net/DTD/sodipodi-0.dtd" xmlns:inkscape="http://www.inkscape.org/namespaces/inkscape" xmlns:dc="http://purl.org/dc/elements/1.1/" xmlns:cc="http://web.resource.org/cc/" xmlns:rdf="http://www.w3.org/1999/02/22-rdf-syntax-ns#" opacity="1" writing-mode="lr-tb" stop-color="rgb(0, 0, 0)" shape-rendering="auto" glyph-orientation-horizontal="0deg" color-profile="auto" lighting-color="rgb(255, 255, 255)" color="rgb(0, 0, 0)" font-weight="400" alignment-baseline="auto" font-style="normal" version="1.0" color-interpolation-filters="linearrgb" text-anchor="start" stroke-linecap="butt" color-interpolation="srgb" font-variant="normal" word-spacing="normal" fill-opacity="1" text-rendering="auto" clip-path="none" text-decoration="none" letter-spacing="normal" glyph-orientation-vertical="auto" display="inline" font-size-adjust="none" overflow="hidden" fill="rgb(0, 0, 0)" font-stretch="normal" stroke-dasharray="none" inkscape:version="0.45.1" id="svg1.svg2" stroke-miterlimit="4" stop-opacity="1" color-rendering="auto" font-size="12" sodipodi:docbase="C:\Daten\alberts\projects\yfx" pointer-events="visiblepainted" mask="none" direction="ltr" baseline-shift="baseline" sodipodi:docname="uml_actor.svg" enable-background="accumulate" fill-rule="nonzero" image-rendering="auto" stroke-dashoffset="0" inkscape:output_extension="org.inkscape.output.svg.inkscape" marker-end="none" width="41" clip="auto" cursor="auto" stroke="none" filter="none" visibility="visible" kerning="auto" stroke-width="1" font-family="&quot;Arial&quot;,&quot;Helvetica&quot;,sans-serif" flood-opacity="1" clip-rule="nonzero" src="none" height="68.997391" unicode-bidi="normal" sodipodi:version="0.32" stroke-linejoin="miter" stroke-opacity="1" flood-color="rgb(0, 0, 0)" dominant-baseline="auto" marker-start="none" marker-mid="none">
            
          <defs id="svg1.defs4">
            <linearGradient x1="478" gradientUnits="userSpaceOnUse" x2="648" y1="540" y2="625" id="linearGradient1" spreadMethod="reflect">
              <stop stop-opacity="1" stop-color="white" offset="0%"/>
              <stop stop-opacity="1" stop-color="white" offset="100%"/>
            </linearGradient>
            <linearGradient x1="538" gradientUnits="userSpaceOnUse" x2="708" y1="394.5" y2="479.5" id="linearGradient2" spreadMethod="reflect">
              <stop stop-opacity="1" stop-color="white" offset="0%"/>
              <stop stop-opacity="1" stop-color="white" offset="100%"/>
            </linearGradient>
            <linearGradient x1="377.75" gradientUnits="userSpaceOnUse" x2="547.75" y1="886" y2="971" id="linearGradient3" spreadMethod="reflect">
              <stop stop-opacity="1" stop-color="white" offset="0%"/>
              <stop stop-opacity="1" stop-color="white" offset="100%"/>
            </linearGradient>
            <linearGradient x1="377.75" gradientUnits="userSpaceOnUse" x2="547.75" y1="661.75" y2="746.75" id="linearGradient4" spreadMethod="reflect">
              <stop stop-opacity="1" stop-color="white" offset="0%"/>
              <stop stop-opacity="1" stop-color="white" offset="100%"/>
            </linearGradient>
            <linearGradient x1="109.5" gradientUnits="userSpaceOnUse" x2="279.5" y1="816" y2="901" id="linearGradient5" spreadMethod="reflect">
              <stop stop-opacity="1" stop-color="white" offset="0%"/>
              <stop stop-opacity="1" stop-color="white" offset="100%"/>
            </linearGradient>
            <linearGradient x1="7.75" gradientUnits="userSpaceOnUse" x2="177.75" y1="939" y2="1024" id="linearGradient6" spreadMethod="reflect">
              <stop stop-opacity="1" stop-color="white" offset="0%"/>
              <stop stop-opacity="1" stop-color="white" offset="100%"/>
            </linearGradient>
            <linearGradient x1="673" gradientUnits="userSpaceOnUse" x2="843" y1="540" y2="625" id="linearGradient7" spreadMethod="reflect">
              <stop stop-opacity="1" stop-color="white" offset="0%"/>
              <stop stop-opacity="1" stop-color="white" offset="100%"/>
            </linearGradient>
            <linearGradient x1="265.5" gradientUnits="userSpaceOnUse" x2="435.5" y1="540" y2="625" id="linearGradient8" spreadMethod="reflect">
              <stop stop-opacity="1" stop-color="white" offset="0%"/>
              <stop stop-opacity="1" stop-color="white" offset="100%"/>
            </linearGradient>
            <linearGradient x1="207.75" gradientUnits="userSpaceOnUse" x2="377.75" y1="939" y2="1024" id="linearGradient9" spreadMethod="reflect">
              <stop stop-opacity="1" stop-color="white" offset="0%"/>
              <stop stop-opacity="1" stop-color="white" offset="100%"/>
            </linearGradient>
            <linearGradient x1="377.75" gradientUnits="userSpaceOnUse" x2="547.75" y1="763.75" y2="848.75" id="linearGradient10" spreadMethod="reflect">
              <stop stop-opacity="1" stop-color="white" offset="0%"/>
              <stop stop-opacity="1" stop-color="white" offset="100%"/>
            </linearGradient>
            <linearGradient x1="703" gradientUnits="userSpaceOnUse" x2="873" y1="675.75" y2="760.75" id="linearGradient11" spreadMethod="reflect">
              <stop stop-opacity="1" stop-color="white" offset="0%"/>
              <stop stop-opacity="1" stop-color="white" offset="100%"/>
            </linearGradient>
            <linearGradient x1="863" gradientUnits="userSpaceOnUse" x2="1033" y1="774" y2="859" id="linearGradient12" spreadMethod="reflect">
              <stop stop-opacity="1" stop-color="white" offset="0%"/>
              <stop stop-opacity="1" stop-color="white" offset="100%"/>
            </linearGradient>
            <linearGradient x1="917" gradientUnits="userSpaceOnUse" x2="1087" y1="675.75" y2="760.75" id="linearGradient13" spreadMethod="reflect">
              <stop stop-opacity="1" stop-color="white" offset="0%"/>
              <stop stop-opacity="1" stop-color="white" offset="100%"/>
            </linearGradient>
            <linearGradient x1="857" gradientUnits="userSpaceOnUse" x2="1027" y1="569.75" y2="654.75" id="linearGradient14" spreadMethod="reflect">
              <stop stop-opacity="1" stop-color="white" offset="0%"/>
              <stop stop-opacity="1" stop-color="white" offset="100%"/>
            </linearGradient>
            <linearGradient x1="693" gradientUnits="userSpaceOnUse" x2="863" y1="816" y2="901" id="linearGradient15" spreadMethod="reflect">
              <stop stop-opacity="1" stop-color="white" offset="0%"/>
              <stop stop-opacity="1" stop-color="white" offset="100%"/>
            </linearGradient>
            <clipPath clipPathUnits="userSpaceOnUse" id="clipPath1">
              <path d="M0 0 L1110 0 L1110 667 L0 667 L0 0 Z"/>
            </clipPath>
            <clipPath clipPathUnits="userSpaceOnUse" id="clipPath2">
              <path d="M-8 372 L1102 372 L1102 1039 L-8 1039 L-8 372 Z"/>
            </clipPath>
            <clipPath clipPathUnits="userSpaceOnUse" id="clipPath3">
              <path d="M-421.0631 -203.9856 L331.8325 -203.9856 L331.8325 255.2833 L-421.0631 255.2833 L-421.0631 -203.9856 Z"/>
            </clipPath>
            <clipPath clipPathUnits="userSpaceOnUse" id="clipPath4">
              <path d="M-294.2239 -10.3284 L458.6717 -10.3284 L458.6717 448.9405 L-294.2239 448.9405 L-294.2239 -10.3284 Z"/>
            </clipPath>
            <clipPath clipPathUnits="userSpaceOnUse" id="clipPath5">
              <path d="M-176.5416 -205.5349 L576.354 -205.5349 L576.354 253.734 L-176.5416 253.734 L-176.5416 -205.5349 Z"/>
            </clipPath>
          </defs>
            
  
          <metadata id="svg1.metadata7">
    
  </metadata>
            
          <g inkscape:groupmode="layer" id="svg1.layer1" transform="translate(-29.5,-42.959476)" inkscape:label="Ebene 1">
                
            <a id="svg1.a3142" transform="matrix(1.0873906,0,0,1,-4.4741999,0)">
                    
              <path transform="translate(11.586889,5.2908993)" style="fill:none;fill-rule:evenodd;stroke:#000000;stroke-width:1px;stroke-linecap:butt;stroke-linejoin:miter;stroke-opacity:1" sodipodi:cx="38.509369" sodipodi:cy="47.36993" sodipodi:rx="8.5197716" id="svg1.path2160" d="M 47.02914 47.36993 A 8.5197716 9.2013531 0 1 1  29.989597,47.36993 A 8.5197716 9.2013531 0 1 1  47.02914 47.36993 z" sodipodi:ry="9.2013531" sodipodi:type="arc"/>
                  
            </a>
                
            <path style="fill:none" sodipodi:cx="43.962021" sodipodi:cy="48.392303" d="M 47.71072 48.392303 A 3.7486994 0 0 1 1  40.213321,48.392303 A 3.7486994 0 0 1 1  47.71072 48.392303 z" id="svg1.path3134" sodipodi:rx="3.7486994" sodipodi:ry="0" sodipodi:type="arc"/>
                
            <path style="fill:none;fill-rule:evenodd;stroke:#000000;stroke-width:1.24319649px;stroke-linecap:butt;stroke-linejoin:miter;stroke-opacity:1" d="M 50,61.33709 C 50,91.363211 50,92.247838 50,92.247838" id="svg1.path3136"/>
                
            <path style="fill:none;fill-rule:evenodd;stroke:#000000;stroke-width:1px;stroke-linecap:butt;stroke-linejoin:miter;stroke-opacity:1" d="M 69.760668,72.362183 C 69.760668,72.362183 69.760668,72.362183 50.239332,72.362183 C 30.239332,72.362183 30.239332,72.362183 30.239332,72.362183 L 30.239332,72.362183" id="svg1.path3138"/>
                
            <path style="fill:none;fill-rule:evenodd;stroke:#000000;stroke-width:1px;stroke-linecap:butt;stroke-linejoin:miter;stroke-opacity:1" d="M 30,111.45687 C 30,111.45687 30,111.45687 50,92.013532 C 70,111.45687 70,111.45687 70,111.45687" id="svg1.path3140"/>
              
          </g>
          
        </svg>
      </g>
    </g>
    <g font-size="13px" stroke-linecap="butt" transform="matrix(1,0,0,1,8,-372)" text-rendering="geometricPrecision" font-family="sans-serif" shape-rendering="geometricPrecision" stroke-miterlimit="1.45">
      <text x="605.8313" xml:space="preserve" y="786.3169" clip-path="url(#clipPath2)" stroke="none">Сотрудник</text>
    </g>
    <g text-rendering="geometricPrecision" shape-rendering="geometricPrecision" transform="matrix(1.4743,0,0,1.4523,433.7767,15)">
      <g clip-path="url(#clipPath4)">
        <svg xmlns:svg="http://www.w3.org/2000/svg" xmlns:sodipodi="http://sodipodi.sourceforge.net/DTD/sodipodi-0.dtd" xmlns:inkscape="http://www.inkscape.org/namespaces/inkscape" xmlns:dc="http://purl.org/dc/elements/1.1/" xmlns:cc="http://web.resource.org/cc/" xmlns:rdf="http://www.w3.org/1999/02/22-rdf-syntax-ns#" opacity="1" writing-mode="lr-tb" stop-color="rgb(0, 0, 0)" shape-rendering="auto" glyph-orientation-horizontal="0deg" color-profile="auto" lighting-color="rgb(255, 255, 255)" color="rgb(0, 0, 0)" font-weight="400" alignment-baseline="auto" font-style="normal" version="1.0" color-interpolation-filters="linearrgb" text-anchor="start" stroke-linecap="butt" color-interpolation="srgb" font-variant="normal" word-spacing="normal" fill-opacity="1" text-rendering="auto" clip-path="none" text-decoration="none" letter-spacing="normal" glyph-orientation-vertical="auto" display="inline" font-size-adjust="none" overflow="hidden" fill="rgb(0, 0, 0)" font-stretch="normal" stroke-dasharray="none" inkscape:version="0.45.1" id="svg2.svg2" stroke-miterlimit="4" stop-opacity="1" color-rendering="auto" font-size="12" sodipodi:docbase="C:\Daten\alberts\projects\yfx" pointer-events="visiblepainted" mask="none" direction="ltr" baseline-shift="baseline" sodipodi:docname="uml_actor.svg" enable-background="accumulate" fill-rule="nonzero" image-rendering="auto" stroke-dashoffset="0" inkscape:output_extension="org.inkscape.output.svg.inkscape" marker-end="none" width="41" clip="auto" cursor="auto" stroke="none" filter="none" visibility="visible" kerning="auto" stroke-width="1" font-family="&quot;Arial&quot;,&quot;Helvetica&quot;,sans-serif" flood-opacity="1" clip-rule="nonzero" src="none" height="68.997391" unicode-bidi="normal" sodipodi:version="0.32" stroke-linejoin="miter" stroke-opacity="1" flood-color="rgb(0, 0, 0)" dominant-baseline="auto" marker-start="none" marker-mid="none">
            
          <defs id="svg2.defs4"/>
            
  
          <metadata id="svg2.metadata7">
    
  </metadata>
            
          <g inkscape:groupmode="layer" id="svg2.layer1" transform="translate(-29.5,-42.959476)" inkscape:label="Ebene 1">
                
            <a id="svg2.a3142" transform="matrix(1.0873906,0,0,1,-4.4741999,0)">
                    
              <path transform="translate(11.586889,5.2908993)" style="fill:none;fill-rule:evenodd;stroke:#000000;stroke-width:1px;stroke-linecap:butt;stroke-linejoin:miter;stroke-opacity:1" sodipodi:cx="38.509369" sodipodi:cy="47.36993" sodipodi:rx="8.5197716" id="svg2.path2160" d="M 47.02914 47.36993 A 8.5197716 9.2013531 0 1 1  29.989597,47.36993 A 8.5197716 9.2013531 0 1 1  47.02914 47.36993 z" sodipodi:ry="9.2013531" sodipodi:type="arc"/>
                  
            </a>
                
            <path style="fill:none" sodipodi:cx="43.962021" sodipodi:cy="48.392303" d="M 47.71072 48.392303 A 3.7486994 0 0 1 1  40.213321,48.392303 A 3.7486994 0 0 1 1  47.71072 48.392303 z" id="svg2.path3134" sodipodi:rx="3.7486994" sodipodi:ry="0" sodipodi:type="arc"/>
                
            <path style="fill:none;fill-rule:evenodd;stroke:#000000;stroke-width:1.24319649px;stroke-linecap:butt;stroke-linejoin:miter;stroke-opacity:1" d="M 50,61.33709 C 50,91.363211 50,92.247838 50,92.247838" id="svg2.path3136"/>
                
            <path style="fill:none;fill-rule:evenodd;stroke:#000000;stroke-width:1px;stroke-linecap:butt;stroke-linejoin:miter;stroke-opacity:1" d="M 69.760668,72.362183 C 69.760668,72.362183 69.760668,72.362183 50.239332,72.362183 C 30.239332,72.362183 30.239332,72.362183 30.239332,72.362183 L 30.239332,72.362183" id="svg2.path3138"/>
                
            <path style="fill:none;fill-rule:evenodd;stroke:#000000;stroke-width:1px;stroke-linecap:butt;stroke-linejoin:miter;stroke-opacity:1" d="M 30,111.45687 C 30,111.45687 30,111.45687 50,92.013532 C 70,111.45687 70,111.45687 70,111.45687" id="svg2.path3140"/>
              
          </g>
          
        </svg>
      </g>
    </g>
    <g font-size="13px" stroke-linecap="butt" transform="matrix(1,0,0,1,8,-372)" text-rendering="geometricPrecision" font-family="sans-serif" shape-rendering="geometricPrecision" stroke-miterlimit="1.45">
      <text x="388.0166" xml:space="preserve" y="505.0669" clip-path="url(#clipPath2)" stroke="none">Неавторизованный </text>
    </g>
    <g font-size="13px" stroke-linecap="butt" transform="matrix(1,0,0,1,8,-372)" text-rendering="geometricPrecision" font-family="sans-serif" shape-rendering="geometricPrecision" stroke-miterlimit="1.45">
      <text x="408.7703" xml:space="preserve" y="520.1997" clip-path="url(#clipPath2)" stroke="none">пользователь</text>
    </g>
    <g fill="url(#linearGradient1)" text-rendering="geometricPrecision" shape-rendering="geometricPrecision" transform="matrix(1,0,0,1,8,-372)" stroke="url(#linearGradient1)">
      <ellipse rx="85" ry="42.5" clip-path="url(#clipPath2)" cx="563" cy="582.5" stroke="none"/>
    </g>
    <g text-rendering="geometricPrecision" stroke-miterlimit="1.45" shape-rendering="geometricPrecision" transform="matrix(1,0,0,1,8,-372)" stroke-linecap="butt">
      <ellipse rx="85" fill="none" ry="42.5" clip-path="url(#clipPath2)" cx="563" cy="582.5"/>
      <text x="481.7188" xml:space="preserve" y="579.6699" clip-path="url(#clipPath2)" font-family="sans-serif" stroke="none">Посмотреть информацию</text>
      <text x="495.6787" xml:space="preserve" y="593.6387" clip-path="url(#clipPath2)" font-family="sans-serif" stroke="none">о конкретном товаре</text>
    </g>
    <g fill="url(#linearGradient2)" text-rendering="geometricPrecision" shape-rendering="geometricPrecision" transform="matrix(1,0,0,1,8,-372)" stroke="url(#linearGradient2)">
      <ellipse rx="85" ry="42.5" clip-path="url(#clipPath2)" cx="623" cy="437" stroke="none"/>
    </g>
    <g text-rendering="geometricPrecision" stroke-miterlimit="1.45" shape-rendering="geometricPrecision" transform="matrix(1,0,0,1,8,-372)" stroke-linecap="butt">
      <ellipse rx="85" fill="none" ry="42.5" clip-path="url(#clipPath2)" cx="623" cy="437"/>
      <text x="601.8975" xml:space="preserve" y="434.1699" clip-path="url(#clipPath2)" font-family="sans-serif" stroke="none">Войти/</text>
      <text x="558.4473" xml:space="preserve" y="448.1387" clip-path="url(#clipPath2)" font-family="sans-serif" stroke="none">зарегистрироваться</text>
    </g>
    <g fill="url(#linearGradient3)" text-rendering="geometricPrecision" shape-rendering="geometricPrecision" transform="matrix(1,0,0,1,8,-372)" stroke="url(#linearGradient3)">
      <ellipse rx="85" ry="42.5" clip-path="url(#clipPath2)" cx="462.75" cy="928.5" stroke="none"/>
    </g>
    <g text-rendering="geometricPrecision" stroke-miterlimit="1.45" shape-rendering="geometricPrecision" transform="matrix(1,0,0,1,8,-372)" stroke-linecap="butt">
      <ellipse rx="85" fill="none" ry="42.5" clip-path="url(#clipPath2)" cx="462.75" cy="928.5"/>
      <text x="442.6025" xml:space="preserve" y="932.6543" clip-path="url(#clipPath2)" font-family="sans-serif" stroke="none">Выйти</text>
    </g>
    <g fill="url(#linearGradient4)" text-rendering="geometricPrecision" shape-rendering="geometricPrecision" transform="matrix(1,0,0,1,8,-372)" stroke="url(#linearGradient4)">
      <ellipse rx="85" ry="42.5" clip-path="url(#clipPath2)" cx="462.75" cy="704.25" stroke="none"/>
    </g>
    <g text-rendering="geometricPrecision" stroke-miterlimit="1.45" shape-rendering="geometricPrecision" transform="matrix(1,0,0,1,8,-372)" stroke-linecap="butt">
      <ellipse rx="85" fill="none" ry="42.5" clip-path="url(#clipPath2)" cx="462.75" cy="704.25"/>
      <text x="423.1377" xml:space="preserve" y="701.4199" clip-path="url(#clipPath2)" font-family="sans-serif" stroke="none">Посмотреть </text>
      <text x="413.1123" xml:space="preserve" y="715.3887" clip-path="url(#clipPath2)" font-family="sans-serif" stroke="none">личные данные</text>
    </g>
    <g text-rendering="geometricPrecision" shape-rendering="geometricPrecision" transform="matrix(1.4743,0,0,1.4523,260.2767,298.5)">
      <g clip-path="url(#clipPath5)">
        <svg xmlns:svg="http://www.w3.org/2000/svg" xmlns:sodipodi="http://sodipodi.sourceforge.net/DTD/sodipodi-0.dtd" xmlns:inkscape="http://www.inkscape.org/namespaces/inkscape" xmlns:dc="http://purl.org/dc/elements/1.1/" xmlns:cc="http://web.resource.org/cc/" xmlns:rdf="http://www.w3.org/1999/02/22-rdf-syntax-ns#" opacity="1" writing-mode="lr-tb" stop-color="rgb(0, 0, 0)" shape-rendering="auto" glyph-orientation-horizontal="0deg" color-profile="auto" lighting-color="rgb(255, 255, 255)" color="rgb(0, 0, 0)" font-weight="400" alignment-baseline="auto" font-style="normal" version="1.0" color-interpolation-filters="linearrgb" text-anchor="start" stroke-linecap="butt" color-interpolation="srgb" font-variant="normal" word-spacing="normal" fill-opacity="1" text-rendering="auto" clip-path="none" text-decoration="none" letter-spacing="normal" glyph-orientation-vertical="auto" display="inline" font-size-adjust="none" overflow="hidden" fill="rgb(0, 0, 0)" font-stretch="normal" stroke-dasharray="none" inkscape:version="0.45.1" id="svg3.svg2" stroke-miterlimit="4" stop-opacity="1" color-rendering="auto" font-size="12" sodipodi:docbase="C:\Daten\alberts\projects\yfx" pointer-events="visiblepainted" mask="none" direction="ltr" baseline-shift="baseline" sodipodi:docname="uml_actor.svg" enable-background="accumulate" fill-rule="nonzero" image-rendering="auto" stroke-dashoffset="0" inkscape:output_extension="org.inkscape.output.svg.inkscape" marker-end="none" width="41" clip="auto" cursor="auto" stroke="none" filter="none" visibility="visible" kerning="auto" stroke-width="1" font-family="&quot;Arial&quot;,&quot;Helvetica&quot;,sans-serif" flood-opacity="1" clip-rule="nonzero" src="none" height="68.997391" unicode-bidi="normal" sodipodi:version="0.32" stroke-linejoin="miter" stroke-opacity="1" flood-color="rgb(0, 0, 0)" dominant-baseline="auto" marker-start="none" marker-mid="none">
            
          <defs id="svg3.defs4"/>
            
  
          <metadata id="svg3.metadata7">
    
  </metadata>
            
          <g inkscape:groupmode="layer" id="svg3.layer1" transform="translate(-29.5,-42.959476)" inkscape:label="Ebene 1">
                
            <a id="svg3.a3142" transform="matrix(1.0873906,0,0,1,-4.4741999,0)">
                    
              <path transform="translate(11.586889,5.2908993)" style="fill:none;fill-rule:evenodd;stroke:#000000;stroke-width:1px;stroke-linecap:butt;stroke-linejoin:miter;stroke-opacity:1" sodipodi:cx="38.509369" sodipodi:cy="47.36993" sodipodi:rx="8.5197716" id="svg3.path2160" d="M 47.02914 47.36993 A 8.5197716 9.2013531 0 1 1  29.989597,47.36993 A 8.5197716 9.2013531 0 1 1  47.02914 47.36993 z" sodipodi:ry="9.2013531" sodipodi:type="arc"/>
                  
            </a>
                
            <path style="fill:none" sodipodi:cx="43.962021" sodipodi:cy="48.392303" d="M 47.71072 48.392303 A 3.7486994 0 0 1 1  40.213321,48.392303 A 3.7486994 0 0 1 1  47.71072 48.392303 z" id="svg3.path3134" sodipodi:rx="3.7486994" sodipodi:ry="0" sodipodi:type="arc"/>
                
            <path style="fill:none;fill-rule:evenodd;stroke:#000000;stroke-width:1.24319649px;stroke-linecap:butt;stroke-linejoin:miter;stroke-opacity:1" d="M 50,61.33709 C 50,91.363211 50,92.247838 50,92.247838" id="svg3.path3136"/>
                
            <path style="fill:none;fill-rule:evenodd;stroke:#000000;stroke-width:1px;stroke-linecap:butt;stroke-linejoin:miter;stroke-opacity:1" d="M 69.760668,72.362183 C 69.760668,72.362183 69.760668,72.362183 50.239332,72.362183 C 30.239332,72.362183 30.239332,72.362183 30.239332,72.362183 L 30.239332,72.362183" id="svg3.path3138"/>
                
            <path style="fill:none;fill-rule:evenodd;stroke:#000000;stroke-width:1px;stroke-linecap:butt;stroke-linejoin:miter;stroke-opacity:1" d="M 30,111.45687 C 30,111.45687 30,111.45687 50,92.013532 C 70,111.45687 70,111.45687 70,111.45687" id="svg3.path3140"/>
              
          </g>
          
        </svg>
      </g>
    </g>
    <g font-size="13px" stroke-linecap="butt" transform="matrix(1,0,0,1,8,-372)" text-rendering="geometricPrecision" font-family="sans-serif" shape-rendering="geometricPrecision" stroke-miterlimit="1.45">
      <text x="250.9934" xml:space="preserve" y="788.5669" clip-path="url(#clipPath2)" stroke="none">Заказчик</text>
    </g>
    <g fill="url(#linearGradient5)" text-rendering="geometricPrecision" shape-rendering="geometricPrecision" transform="matrix(1,0,0,1,8,-372)" stroke="url(#linearGradient5)">
      <ellipse rx="85" ry="42.5" clip-path="url(#clipPath2)" cx="194.5" cy="858.5" stroke="none"/>
    </g>
    <g text-rendering="geometricPrecision" stroke-miterlimit="1.45" shape-rendering="geometricPrecision" transform="matrix(1,0,0,1,8,-372)" stroke-linecap="butt">
      <ellipse rx="85" fill="none" ry="42.5" clip-path="url(#clipPath2)" cx="194.5" cy="858.5"/>
      <text x="142.4453" xml:space="preserve" y="862.6543" clip-path="url(#clipPath2)" font-family="sans-serif" stroke="none">Оформить заказ</text>
    </g>
    <g fill="url(#linearGradient6)" text-rendering="geometricPrecision" shape-rendering="geometricPrecision" transform="matrix(1,0,0,1,8,-372)" stroke="url(#linearGradient6)">
      <ellipse rx="85" ry="42.5" clip-path="url(#clipPath2)" cx="92.75" cy="981.5" stroke="none"/>
    </g>
    <g text-rendering="geometricPrecision" stroke-miterlimit="1.45" shape-rendering="geometricPrecision" transform="matrix(1,0,0,1,8,-372)" stroke-linecap="butt">
      <ellipse rx="85" fill="none" ry="42.5" clip-path="url(#clipPath2)" cx="92.75" cy="981.5"/>
      <text x="45.8867" xml:space="preserve" y="978.6699" clip-path="url(#clipPath2)" font-family="sans-serif" stroke="none">Выбрать точку</text>
      <text x="63.4004" xml:space="preserve" y="992.6387" clip-path="url(#clipPath2)" font-family="sans-serif" stroke="none">доставки</text>
    </g>
    <g fill="url(#linearGradient7)" text-rendering="geometricPrecision" shape-rendering="geometricPrecision" transform="matrix(1,0,0,1,8,-372)" stroke="url(#linearGradient7)">
      <ellipse rx="85" ry="42.5" clip-path="url(#clipPath2)" cx="758" cy="582.5" stroke="none"/>
    </g>
    <g text-rendering="geometricPrecision" stroke-miterlimit="1.45" shape-rendering="geometricPrecision" transform="matrix(1,0,0,1,8,-372)" stroke-linecap="butt">
      <ellipse rx="85" fill="none" ry="42.5" clip-path="url(#clipPath2)" cx="758" cy="582.5"/>
      <text x="685.4111" xml:space="preserve" y="586.6543" clip-path="url(#clipPath2)" font-family="sans-serif" stroke="none">Ввести логин и пароль</text>
    </g>
    <g fill="url(#linearGradient8)" text-rendering="geometricPrecision" shape-rendering="geometricPrecision" transform="matrix(1,0,0,1,8,-372)" stroke="url(#linearGradient8)">
      <ellipse rx="85" ry="42.5" clip-path="url(#clipPath2)" cx="350.5" cy="582.5" stroke="none"/>
    </g>
    <g text-rendering="geometricPrecision" stroke-miterlimit="1.45" shape-rendering="geometricPrecision" transform="matrix(1,0,0,1,8,-372)" stroke-linecap="butt">
      <ellipse rx="85" fill="none" ry="42.5" clip-path="url(#clipPath2)" cx="350.5" cy="582.5"/>
      <text x="270.1035" xml:space="preserve" y="579.6699" clip-path="url(#clipPath2)" font-family="sans-serif" stroke="none">Посмотреть ассортимент</text>
      <text x="325.1055" xml:space="preserve" y="593.6387" clip-path="url(#clipPath2)" font-family="sans-serif" stroke="none">товаров</text>
    </g>
    <g fill="url(#linearGradient9)" text-rendering="geometricPrecision" shape-rendering="geometricPrecision" transform="matrix(1,0,0,1,8,-372)" stroke="url(#linearGradient9)">
      <ellipse rx="85" ry="42.5" clip-path="url(#clipPath2)" cx="292.75" cy="981.5" stroke="none"/>
    </g>
    <g text-rendering="geometricPrecision" stroke-miterlimit="1.45" shape-rendering="geometricPrecision" transform="matrix(1,0,0,1,8,-372)" stroke-linecap="butt">
      <ellipse rx="85" fill="none" ry="42.5" clip-path="url(#clipPath2)" cx="292.75" cy="981.5"/>
      <text x="237.7158" xml:space="preserve" y="978.6699" clip-path="url(#clipPath2)" font-family="sans-serif" stroke="none">Добавить товары</text>
      <text x="261.6396" xml:space="preserve" y="992.6387" clip-path="url(#clipPath2)" font-family="sans-serif" stroke="none">в корзину</text>
    </g>
    <g fill="url(#linearGradient10)" text-rendering="geometricPrecision" shape-rendering="geometricPrecision" transform="matrix(1,0,0,1,8,-372)" stroke="url(#linearGradient10)">
      <ellipse rx="85" ry="42.5" clip-path="url(#clipPath2)" cx="462.75" cy="806.25" stroke="none"/>
    </g>
    <g text-rendering="geometricPrecision" stroke-miterlimit="1.45" shape-rendering="geometricPrecision" transform="matrix(1,0,0,1,8,-372)" stroke-linecap="butt">
      <ellipse rx="85" fill="none" ry="42.5" clip-path="url(#clipPath2)" cx="462.75" cy="806.25"/>
      <text x="394.1074" xml:space="preserve" y="803.4199" clip-path="url(#clipPath2)" font-family="sans-serif" stroke="none">Посмотреть историю </text>
      <text x="418.3213" xml:space="preserve" y="817.3887" clip-path="url(#clipPath2)" font-family="sans-serif" stroke="none">своих заказов</text>
    </g>
    <g fill="url(#linearGradient11)" text-rendering="geometricPrecision" shape-rendering="geometricPrecision" transform="matrix(1,0,0,1,8,-372)" stroke="url(#linearGradient11)">
      <ellipse rx="85" ry="42.5" clip-path="url(#clipPath2)" cx="788" cy="718.25" stroke="none"/>
    </g>
    <g text-rendering="geometricPrecision" stroke-miterlimit="1.45" shape-rendering="geometricPrecision" transform="matrix(1,0,0,1,8,-372)" stroke-linecap="butt">
      <ellipse rx="85" fill="none" ry="42.5" clip-path="url(#clipPath2)" cx="788" cy="718.25"/>
      <text x="735.9453" xml:space="preserve" y="722.4043" clip-path="url(#clipPath2)" font-family="sans-serif" stroke="none">Оформить заказ</text>
    </g>
    <g fill="url(#linearGradient12)" text-rendering="geometricPrecision" shape-rendering="geometricPrecision" transform="matrix(1,0,0,1,8,-372)" stroke="url(#linearGradient12)">
      <ellipse rx="85" ry="42.5" clip-path="url(#clipPath2)" cx="948" cy="816.5" stroke="none"/>
    </g>
    <g text-rendering="geometricPrecision" stroke-miterlimit="1.45" shape-rendering="geometricPrecision" transform="matrix(1,0,0,1,8,-372)" stroke-linecap="butt">
      <ellipse rx="85" fill="none" ry="42.5" clip-path="url(#clipPath2)" cx="948" cy="816.5"/>
      <text x="901.1367" xml:space="preserve" y="813.6699" clip-path="url(#clipPath2)" font-family="sans-serif" stroke="none">Выбрать точку</text>
      <text x="918.6504" xml:space="preserve" y="827.6387" clip-path="url(#clipPath2)" font-family="sans-serif" stroke="none">доставки</text>
    </g>
    <g fill="url(#linearGradient13)" text-rendering="geometricPrecision" shape-rendering="geometricPrecision" transform="matrix(1,0,0,1,8,-372)" stroke="url(#linearGradient13)">
      <ellipse rx="85" ry="42.5" clip-path="url(#clipPath2)" cx="1002" cy="718.25" stroke="none"/>
    </g>
    <g text-rendering="geometricPrecision" stroke-miterlimit="1.45" shape-rendering="geometricPrecision" transform="matrix(1,0,0,1,8,-372)" stroke-linecap="butt">
      <ellipse rx="85" fill="none" ry="42.5" clip-path="url(#clipPath2)" cx="1002" cy="718.25"/>
      <text x="946.9658" xml:space="preserve" y="715.4199" clip-path="url(#clipPath2)" font-family="sans-serif" stroke="none">Добавить товары</text>
      <text x="970.8896" xml:space="preserve" y="729.3887" clip-path="url(#clipPath2)" font-family="sans-serif" stroke="none">в корзину</text>
    </g>
    <g fill="url(#linearGradient14)" text-rendering="geometricPrecision" shape-rendering="geometricPrecision" transform="matrix(1,0,0,1,8,-372)" stroke="url(#linearGradient14)">
      <ellipse rx="85" ry="42.5" clip-path="url(#clipPath2)" cx="942" cy="612.25" stroke="none"/>
    </g>
    <g text-rendering="geometricPrecision" stroke-miterlimit="1.45" shape-rendering="geometricPrecision" transform="matrix(1,0,0,1,8,-372)" stroke-linecap="butt">
      <ellipse rx="85" fill="none" ry="42.5" clip-path="url(#clipPath2)" cx="942" cy="612.25"/>
      <text x="897.668" xml:space="preserve" y="609.4199" clip-path="url(#clipPath2)" font-family="sans-serif" stroke="none">Ввести логин </text>
      <text x="909.8965" xml:space="preserve" y="623.3887" clip-path="url(#clipPath2)" font-family="sans-serif" stroke="none">заказчика</text>
    </g>
    <g fill="url(#linearGradient15)" text-rendering="geometricPrecision" shape-rendering="geometricPrecision" transform="matrix(1,0,0,1,8,-372)" stroke="url(#linearGradient15)">
      <ellipse rx="85" ry="42.5" clip-path="url(#clipPath2)" cx="778" cy="858.5" stroke="none"/>
    </g>
    <g text-rendering="geometricPrecision" stroke-miterlimit="1.45" shape-rendering="geometricPrecision" transform="matrix(1,0,0,1,8,-372)" stroke-linecap="butt">
      <ellipse rx="85" fill="none" ry="42.5" clip-path="url(#clipPath2)" cx="778" cy="858.5"/>
      <text x="722.6201" xml:space="preserve" y="855.6699" clip-path="url(#clipPath2)" font-family="sans-serif" stroke="none">Изменить статус </text>
      <text x="756.9648" xml:space="preserve" y="869.6387" clip-path="url(#clipPath2)" font-family="sans-serif" stroke="none">заказа</text>
    </g>
    <g text-rendering="geometricPrecision" stroke-miterlimit="1.45" shape-rendering="geometricPrecision" transform="matrix(1,0,0,1,8,-372)" stroke-linecap="butt">
      <path fill="none" d="M486.0154 477.8153 L533.6609 542.6043" clip-path="url(#clipPath2)"/>
      <path fill="none" d="M613.5273 668.2386 L587.0054 623.2342" clip-path="url(#clipPath2)"/>
      <path fill="none" d="M485.967 437 L537.9901 437" clip-path="url(#clipPath2)"/>
      <path fill="none" d="M613.0096 753.2318 L496.2246 889.454" clip-path="url(#clipPath2)"/>
      <path fill="none" d="M613.0317 715.9224 L546.7331 710.7729" clip-path="url(#clipPath2)"/>
      <path fill="none" d="M312.5291 705.7263 L502.4308 612.2988" clip-path="url(#clipPath2)"/>
      <path fill="none" d="M312.4683 717.7983 L379.1338 711.7882" clip-path="url(#clipPath2)"/>
      <path fill="none" d="M312.4903 755.1074 L428.9453 889.4909" clip-path="url(#clipPath2)"/>
      <path fill="none" d="M252.4863 767.5669 L220.3079 818.0286" clip-path="url(#clipPath2)"/>
      <path fill="none" stroke-dasharray="6,2" d="M162.0324 897.7483 L128.4301 938.3683" clip-path="url(#clipPath2)"/>
      <path stroke-dasharray="6,2" d="M125.8805 941.4504 L138.1525 936.0285 L125.8805 941.4504 L128.9062 928.3796 Z" clip-path="url(#clipPath2)" stroke="none"/>
      <path fill="none" stroke-miterlimit="10" d="M125.8805 941.4504 L138.1525 936.0285 L125.8805 941.4504 L128.9062 928.3796 Z" clip-path="url(#clipPath2)" stroke-linecap="square"/>
      <text x="90.9122" xml:space="preserve" y="914.532" clip-path="url(#clipPath2)" font-family="sans-serif" stroke="none">include</text>
      <path fill="none" stroke-dasharray="6,2" d="M658.7605 475.5419 L718.8138 540.2661" clip-path="url(#clipPath2)"/>
      <path stroke-dasharray="6,2" d="M721.5345 543.1983 L717.7709 530.3206 L721.5345 543.1983 L708.9742 538.4825 Z" clip-path="url(#clipPath2)" stroke="none"/>
      <path fill="none" stroke-miterlimit="10" d="M721.5345 543.1983 L717.7709 530.3206 L721.5345 543.1983 L708.9742 538.4825 Z" clip-path="url(#clipPath2)" stroke-linecap="square"/>
      <text x="632.7363" xml:space="preserve" y="519.1841" clip-path="url(#clipPath2)" font-family="sans-serif" stroke="none">include</text>
      <path fill="none" d="M425.9933 478.3837 L379.4551 542.5667" clip-path="url(#clipPath2)"/>
      <path fill="none" d="M307.1533 670.4683 L330.1601 623.7781" clip-path="url(#clipPath2)"/>
      <path fill="none" d="M612.9716 704.3137 L412.8178 611.4218" clip-path="url(#clipPath2)"/>
      <path fill="none" stroke-dasharray="6,2" d="M226.0427 897.9885 L258.1161 938.1415" clip-path="url(#clipPath2)"/>
      <path stroke-dasharray="6,2" d="M260.6125 941.2668 L257.8112 928.1461 L260.6125 941.2668 L248.4352 935.6354 Z" clip-path="url(#clipPath2)" stroke="none"/>
      <path fill="none" stroke-miterlimit="10" d="M260.6125 941.2668 L257.8112 928.1461 L260.6125 941.2668 L248.4352 935.6354 Z" clip-path="url(#clipPath2)" stroke-linecap="square"/>
      <text x="190.8583" xml:space="preserve" y="933.3777" clip-path="url(#clipPath2)" font-family="sans-serif" stroke="none">include</text>
      <path fill="none" d="M312.4683 734.7568 L401.1477 776.9441" clip-path="url(#clipPath2)"/>
      <path fill="none" d="M613.0317 732.8809 L523.5451 776.5692" clip-path="url(#clipPath2)"/>
      <path fill="none" d="M672.9841 718.25 L703.0017 718.25" clip-path="url(#clipPath2)"/>
      <path fill="none" stroke-dasharray="6,2" d="M841.6328 751.1839 L890.0622 780.9225" clip-path="url(#clipPath2)"/>
      <path stroke-dasharray="6,2" d="M893.4708 783.0157 L886.3846 771.6234 L893.4708 783.0157 L880.1052 781.8493 Z" clip-path="url(#clipPath2)" stroke="none"/>
      <path fill="none" stroke-miterlimit="10" d="M893.4708 783.0157 L886.3846 771.6234 L893.4708 783.0157 L880.1052 781.8493 Z" clip-path="url(#clipPath2)" stroke-linecap="square"/>
      <text x="827.6237" xml:space="preserve" y="795.289" clip-path="url(#clipPath2)" font-family="sans-serif" stroke="none">include</text>
      <path fill="none" stroke-dasharray="6,2" d="M872.9783 718.25 L911.983 718.25" clip-path="url(#clipPath2)"/>
      <path stroke-dasharray="6,2" d="M915.983 718.25 L903.983 712.25 L915.983 718.25 L903.983 724.25 Z" clip-path="url(#clipPath2)" stroke="none"/>
      <path fill="none" stroke-miterlimit="10" d="M915.983 718.25 L903.983 712.25 L915.983 718.25 L903.983 724.25 Z" clip-path="url(#clipPath2)" stroke-linecap="square"/>
      <text x="873.7617" xml:space="preserve" y="692.4043" clip-path="url(#clipPath2)" font-family="sans-serif" stroke="none">include</text>
      <path fill="none" stroke-dasharray="6,2" d="M837.9673 683.8569 L887.9223 649.4724" clip-path="url(#clipPath2)"/>
      <path stroke-dasharray="6,2" d="M891.2172 647.2044 L877.9306 649.0659 L891.2172 647.2044 L884.7344 658.9506 Z" clip-path="url(#clipPath2)" stroke="none"/>
      <path fill="none" stroke-miterlimit="10" d="M891.2172 647.2044 L877.9306 649.0659 L891.2172 647.2044 L884.7344 658.9506 Z" clip-path="url(#clipPath2)" stroke-linecap="square"/>
      <text x="810.9975" xml:space="preserve" y="655.1924" clip-path="url(#clipPath2)" font-family="sans-serif" stroke="none">include</text>
      <path fill="none" d="M673.0256 749.4433 L741.1206 820.1864" clip-path="url(#clipPath2)"/>
    </g>
  </g>
</svg>
